PathFileType	4	(x/y/z)	S02_P20_T24
DataRate	CameraRate	NumFrames	NumMarkers	Units	OrigDataRate	OrigDataStartFrame	OrigNumFrames
240	240	9	51	mm	240	45	353
Frame#	Time	Sternum			R.Acromium			L.Acromium			Top.Head			R.ASIS			L.ASIS			R.PSIS			L.PSIS			R.Great.Tro			L.Great.Tro			R.Iliac.Crest			L.Iliac.Crest			V.Sacral			R.Thigh.Upper.Post			R.Thigh.Lower.Ant			R.Thigh.Lower.Post			R.Thigh.Upper.Ant			R.Knee.Lat			R.Knee.Med			R.Shank.Upper.Post			R.Shank.Lower.Ant			R.Shank.Lower.Post			R.Shank.Upper.Ant			R.Ankle.Lat			R.Ankle.Med			R.Heel.Upper			R.Heel.Med			R.Heel.Lat			R.Toe.Lat			R.Toe.Med			R.Toe.Tip			L.Thigh.Upper.Post			L.Thigh.Lower.Ant			L.Thigh.Lower.Post			L.Thigh.Upper.Ant			L.Knee.Lat			L.Knee.Med			L.Shank.Upper.Post			L.Shank.Lower.Ant			L.Shank.Lower.Post			L.Shank.Upper.Ant			L.Ankle.Lat			L.Ankle.Med			L.Heel.Upper			L.Heel.Med			L.Heel.Lat			L.Toe.Lat			L.Toe.Med			L.Toe.Tip			Cervical.Spine			Back			
		X1	Y1	Z1	X2	Y2	Z2	X3	Y3	Z3	X4	Y4	Z4	X5	Y5	Z5	X6	Y6	Z6	X7	Y7	Z7	X8	Y8	Z8	X9	Y9	Z9	X10	Y10	Z10	X11	Y11	Z11	X12	Y12	Z12	X13	Y13	Z13	X14	Y14	Z14	X15	Y15	Z15	X16	Y16	Z16	X17	Y17	Z17	X18	Y18	Z18	X19	Y19	Z19	X20	Y20	Z20	X21	Y21	Z21	X22	Y22	Z22	X23	Y23	Z23	X24	Y24	Z24	X25	Y25	Z25	X26	Y26	Z26	X27	Y27	Z27	X28	Y28	Z28	X29	Y29	Z29	X30	Y30	Z30	X31	Y31	Z31	X32	Y32	Z32	X33	Y33	Z33	X34	Y34	Z34	X35	Y35	Z35	X36	Y36	Z36	X37	Y37	Z37	X38	Y38	Z38	X39	Y39	Z39	X40	Y40	Z40	X41	Y41	Z41	X42	Y42	Z42	X43	Y43	Z43	X44	Y44	Z44	X45	Y45	Z45	X46	Y46	Z46	X47	Y47	Z47	X48	Y48	Z48	X49	Y49	Z49	X50	Y50	Z50	X51	Y51	Z51	

45	0.18333	-1051.7	1091.4	318.54	-1167.2	1326.3	456.77	-1159	1329.6	161.84	-1091.4	1611.8	305.51	-1096.9	913.13	420.56	-1075.9	916.81	216.5	-1305.7	950.28	358.49	-1313.1	962.76	285.51	-1179.6	793.99	509.98	-1188.9	832.06	119.71	-1201.5	957.25	478.02	-1197.2	966.57	143.45	-1334.4	908.39	311.84	-1154.1	592.96	507.92	-1087.9	516.2	489.03	-1159.3	502.8	494.12	-1086.1	605.82	497.13	-1142.5	427.71	490.01	-1129	407.23	345.71	-1334.1	356.63	469.11	-1360.2	249.81	456.08	-1394.9	310.2	459.61	-1303.1	290.99	472.56	-1459.6	237.91	448.95	-1429.1	235.23	366.21	-1491.7	284.18	391.28	-1506.8	260.93	358.32	-1527	267.98	421.06	-1464.2	116.77	465.33	-1436.2	91.703	363.02	-1394.2	60.451	421.53	-1162.3	593.02	148.81	-1068.2	535.35	160.12	-1142.2	507.8	175.36	-1097.9	622.71	134.99	-1067.6	452.55	175.51	-1071.5	457.2	313.04	-1146	284.81	177.57	-1082.4	196.34	201.93	-1151.9	214.06	195.05	-1084.7	270.13	182.37	-1134.4	98.412	217.35	-1123.2	95.584	298.65	-1194.6	65.619	251.94	-1186	40.353	285.26	-1188	37.645	223.59	-1021.9	34.933	194.94	-1001.3	44.59	305.31	-940.88	60.866	257.58	-1239.2	1391.3	308.32	-1316.4	1139.1	317.82
46	0.1875	-1046.6	1092.5	318.8	-1162.8	1327.4	456.55	-1153.3	1330.3	161.53	-1086.4	1612.9	305.09	-1092.5	914.1	420.74	-1071	917.57	216.25	-1300.8	951.17	358.04	-1308.2	963.69	285.07	-1174.4	795.22	509.69	-1184.3	832.9	119.51	-1197	958.11	477.71	-1192.2	967.49	143.1	-1329.5	909.28	311.34	-1145.4	594.41	508.29	-1078.4	518.56	489.76	-1149.6	504.28	494.61	-1078	608.17	497.59	-1131.6	429.57	490.61	-1117.3	408.83	346.18	-1323	358.63	468.72	-1348.6	251.61	455.67	-1383.5	312.14	459	-1292	292.93	472.45	-1448.1	240.14	448.1	-1417.4	236.98	365.49	-1480	286.13	389.87	-1494.9	262.68	356.97	-1515.6	270.2	419.64	-1453.2	119.21	465.37	-1424.6	93.295	363.36	-1383.3	61.879	422.43	-1159.8	593.74	148.58	-1066.2	535.24	159.92	-1140.4	508.33	175.07	-1095.1	622.89	134.86	-1066.4	452.42	175.37	-1070.8	457.01	312.89	-1145.4	284.99	177.57	-1082.1	196.24	201.78	-1151.3	214.25	194.97	-1084.2	270.05	182.23	-1134.3	98.48	217.34	-1123.2	95.672	298.61	-1194.6	65.686	251.93	-1186	40.437	285.25	-1188	37.701	223.58	-1021.9	34.939	194.94	-1001.3	44.607	305.29	-940.88	60.852	257.58	-1233.8	1392.2	307.73	-1311.3	1140	317.01
47	0.19167	-1041.5	1093.7	319.08	-1158.3	1328.6	456.35	-1147.5	1331	161.24	-1081.3	1613.9	304.68	-1088.1	915.11	420.96	-1066	918.28	216.03	-1295.9	952.12	357.57	-1303.2	964.66	284.61	-1169.3	796.51	509.44	-1179.7	833.7	119.34	-1192.5	959.04	477.41	-1187.2	968.4	142.74	-1324.6	910.23	310.85	-1136.8	595.97	508.64	-1068.9	521.02	490.43	-1140	505.87	495.06	-1069.8	610.6	498.01	-1120.7	431.54	491.15	-1105.7	410.58	346.6	-1311.9	360.53	468.24	-1336.9	253.27	455.23	-1372	313.88	458.32	-1280.9	294.82	472.29	-1436.6	242.06	447.2	-1405.6	238.48	364.72	-1468.4	287.69	388.43	-1483	264	355.58	-1504.1	271.94	418.18	-1441.9	121.35	465.37	-1412.6	94.681	363.65	-1372	63.281	423.28	-1157.3	594.48	148.38	-1064.2	535.14	159.78	-1138.7	508.87	174.82	-1092.3	623.07	134.76	-1065.2	452.31	175.28	-1070.1	456.84	312.79	-1144.9	285.17	177.6	-1081.9	196.17	201.65	-1150.6	214.43	194.92	-1083.8	269.99	182.11	-1134.3	98.551	217.34	-1123.1	95.759	298.57	-1194.6	65.759	251.92	-1186	40.525	285.24	-1188	37.766	223.58	-1021.9	34.944	194.94	-1001.3	44.618	305.27	-940.88	60.833	257.58	-1228.5	1393.1	307.17	-1306.2	1141	316.19
48	0.19583	-1036.4	1094.8	319.37	-1153.9	1329.8	456.18	-1141.8	1331.8	160.98	-1076.3	1615	304.3	-1083.7	916.14	421.2	-1061.1	918.94	215.83	-1291	953.14	357.1	-1298.3	965.68	284.14	-1164.1	797.84	509.23	-1175.2	834.46	119.19	-1187.9	960.01	477.13	-1182.1	969.29	142.37	-1319.7	911.26	310.37	-1128.2	597.63	508.97	-1059.5	523.59	491.02	-1130.3	507.57	495.48	-1061.6	613.12	498.38	-1109.9	433.61	491.64	-1094.3	412.49	346.96	-1300.8	362.3	467.68	-1325.1	254.8	454.78	-1360.4	315.42	457.58	-1269.7	296.64	472.09	-1424.9	243.65	446.27	-1393.7	239.72	363.92	-1456.7	288.86	386.98	-1470.9	264.88	354.18	-1492.4	273.19	416.69	-1430.1	123.18	465.32	-1400.1	95.853	363.86	-1360.1	64.628	424.06	-1154.8	595.22	148.21	-1062.3	535.05	159.67	-1137	509.43	174.6	-1089.5	623.26	134.71	-1064	452.22	175.23	-1069.4	456.7	312.73	-1144.5	285.34	177.65	-1081.7	196.1	201.54	-1150.1	214.61	194.9	-1083.4	269.94	182.02	-1134.2	98.625	217.34	-1123.1	95.848	298.54	-1194.6	65.839	251.92	-1185.9	40.619	285.24	-1188	37.841	223.58	-1021.9	34.949	194.95	-1001.3	44.624	305.26	-940.87	60.809	257.58	-1223.2	1394	306.63	-1301.1	1142	315.38
49	0.2	-1031.3	1095.9	319.68	-1149.5	1331	456.02	-1136.2	1332.5	160.73	-1071.2	1616.1	303.93	-1079.2	917.21	421.46	-1056.2	919.55	215.65	-1286	954.22	356.62	-1293.3	966.74	283.66	-1159	799.22	509.05	-1170.7	835.18	119.05	-1183.3	961.05	476.87	-1177.1	970.16	142	-1314.9	912.35	309.9	-1119.6	599.38	509.29	-1050.1	526.24	491.55	-1120.7	509.36	495.86	-1053.5	615.72	498.72	-1099.1	435.78	492.08	-1083.1	414.53	347.27	-1289.8	363.94	467.05	-1313.3	256.19	454.31	-1348.9	316.73	456.8	-1258.5	298.37	471.84	-1413	244.91	445.32	-1381.6	240.71	363.09	-1445	289.64	385.53	-1458.8	265.35	352.77	-1480.7	273.97	415.2	-1417.9	124.68	465.22	-1387.3	96.801	364.01	-1347.8	65.893	424.75	-1152.4	595.97	148.08	-1060.4	534.97	159.62	-1135.3	510	174.41	-1086.8	623.44	134.7	-1062.9	452.16	175.22	-1068.7	456.59	312.72	-1144.1	285.52	177.72	-1081.5	196.06	201.46	-1149.6	214.79	194.91	-1083	269.92	181.95	-1134.2	98.703	217.35	-1123	95.939	298.52	-1194.5	65.925	251.92	-1185.9	40.72	285.24	-1188	37.925	223.59	-1021.9	34.952	194.95	-1001.2	44.624	305.24	-940.86	60.78	257.58	-1217.9	1395	306.12	-1296.1	1142.9	314.57
50	0.20417	-1026.3	1097.1	319.99	-1145	1332.2	455.88	-1130.5	1333.3	160.5	-1066.2	1617.1	303.59	-1074.7	918.31	421.71	-1051.3	920.11	215.48	-1281	955.36	356.15	-1288.3	967.84	283.18	-1153.8	800.62	508.91	-1166.2	835.87	118.94	-1178.6	962.14	476.61	-1172.1	971.02	141.64	-1310	913.51	309.45	-1111.1	601.2	509.58	-1040.8	528.98	492	-1111.1	511.24	496.21	-1045.3	618.38	499.01	-1088.5	438.01	492.45	-1072.1	416.7	347.53	-1278.9	365.44	466.36	-1301.4	257.42	453.82	-1337.3	317.82	455.98	-1247.2	300.01	471.55	-1401.1	245.84	444.35	-1369.5	241.45	362.24	-1433.2	290.03	384.1	-1446.6	265.41	351.39	-1468.7	274.28	413.73	-1405.4	125.85	465.08	-1374.1	97.524	364.08	-1335.1	67.053	425.36	-1150	596.72	147.98	-1058.5	534.9	159.6	-1133.6	510.59	174.27	-1084.1	623.63	134.72	-1061.8	452.12	175.24	-1067.9	456.5	312.75	-1143.7	285.69	177.79	-1081.3	196.03	201.39	-1149.1	214.97	194.93	-1082.6	269.91	181.92	-1134.1	98.784	217.37	-1123	96.033	298.51	-1194.5	66.018	251.93	-1185.9	40.829	285.24	-1188	38.02	223.6	-1021.9	34.956	194.96	-1001.2	44.62	305.23	-940.85	60.747	257.58	-1212.7	1395.9	305.64	-1291	1143.9	313.76
51	0.20833	-1021.2	1098.2	320.31	-1140.6	1333.4	455.75	-1124.8	1334.1	160.3	-1061.1	1618.2	303.26	-1070.1	919.45	421.96	-1046.3	920.64	215.31	-1276	956.56	355.69	-1283.3	968.98	282.71	-1148.6	802.05	508.79	-1161.8	836.52	118.84	-1173.8	963.3	476.35	-1167.1	971.86	141.28	-1305.1	914.73	309.03	-1102.7	603.1	509.85	-1031.4	531.78	492.37	-1101.5	513.18	496.53	-1037.2	621.1	499.28	-1077.9	440.31	492.76	-1061.3	418.98	347.74	-1267.9	366.77	465.62	-1289.5	258.49	453.33	-1325.6	318.67	455.13	-1235.9	301.54	471.22	-1389	246.43	443.38	-1357.2	241.93	361.38	-1421.4	290.05	382.7	-1434.4	265.09	350.03	-1456.7	274.14	412.29	-1392.5	126.68	464.89	-1360.5	98.018	364.08	-1322	68.087	425.86	-1147.6	597.48	147.92	-1056.6	534.84	159.62	-1132	511.19	174.16	-1081.5	623.83	134.77	-1060.7	452.1	175.29	-1067.2	456.44	312.82	-1143.3	285.87	177.88	-1081.1	196.03	201.35	-1148.7	215.15	194.98	-1082.2	269.92	181.9	-1134.1	98.869	217.39	-1122.9	96.132	298.49	-1194.5	66.118	251.94	-1185.8	40.945	285.25	-1188	38.125	223.61	-1021.9	34.959	194.96	-1001.2	44.613	305.22	-940.83	60.709	257.59	-1207.5	1396.9	305.18	-1286	1145	312.96
52	0.2125	-1016.2	1099.2	320.62	-1136.1	1334.6	455.62	-1119.2	1334.8	160.11	-1056	1619.2	302.96	-1065.4	920.62	422.2	-1041.4	921.13	215.15	-1271	957.81	355.24	-1278.3	970.16	282.25	-1143.5	803.49	508.71	-1157.4	837.14	118.75	-1168.9	964.51	476.1	-1162.1	972.68	140.92	-1300.2	916	308.64	-1094.2	605.05	510.1	-1022.2	534.63	492.67	-1092	515.2	496.82	-1029	623.87	499.52	-1067.4	442.66	493	-1050.5	421.36	347.91	-1257	367.94	464.83	-1277.5	259.4	452.84	-1313.9	319.29	454.26	-1224.5	302.96	470.85	-1376.8	246.69	442.42	-1344.9	242.16	360.52	-1409.6	289.71	381.35	-1422.1	264.39	348.71	-1444.6	273.55	410.89	-1379.3	127.17	464.65	-1346.7	98.287	364.01	-1308.4	68.983	426.25	-1145.2	598.25	147.9	-1054.8	534.79	159.68	-1130.4	511.8	174.1	-1078.8	624.02	134.85	-1059.7	452.1	175.35	-1066.4	456.4	312.93	-1142.9	286.05	177.98	-1080.9	196.04	201.33	-1148.3	215.33	195.03	-1081.9	269.96	181.91	-1134	98.959	217.41	-1122.9	96.237	298.48	-1194.4	66.225	251.96	-1185.8	41.069	285.25	-1188	38.24	223.62	-1021.9	34.962	194.97	-1001.2	44.603	305.21	-940.8	60.669	257.59	-1202.3	1397.9	304.74	-1281	1146	312.15
53	0.21667	-1011.2	1100.3	320.93	-1131.6	1335.9	455.5	-1113.6	1335.7	159.94	-1051	1620.2	302.68	-1060.7	921.83	422.41	-1036.5	921.6	214.98	-1265.9	959.1	354.82	-1273.3	971.36	281.8	-1138.3	804.94	508.64	-1153	837.73	118.68	-1164	965.78	475.84	-1157.1	973.48	140.58	-1295.3	917.31	308.29	-1085.9	607.04	510.33	-1012.9	537.54	492.89	-1082.4	517.27	497.08	-1020.9	626.69	499.75	-1056.9	445.03	493.19	-1039.9	423.84	348.04	-1246.2	368.93	464.02	-1265.4	260.14	452.33	-1302.2	319.66	453.39	-1213.1	304.25	470.45	-1364.5	246.62	441.47	-1332.4	242.15	359.67	-1397.7	289.01	380.05	-1409.8	263.34	347.45	-1432.3	272.54	409.55	-1365.8	127.33	464.35	-1332.5	98.337	363.87	-1294.5	69.728	426.53	-1142.8	599.01	147.91	-1053	534.75	159.76	-1128.8	512.42	174.07	-1076.2	624.21	134.97	-1058.7	452.11	175.43	-1065.5	456.37	313.07	-1142.5	286.23	178.08	-1080.7	196.07	201.33	-1147.9	215.52	195.1	-1081.5	270	181.94	-1134	99.053	217.44	-1122.9	96.349	298.48	-1194.4	66.338	251.98	-1185.7	41.201	285.26	-1187.9	38.365	223.64	-1021.9	34.965	194.98	-1001.2	44.592	305.2	-940.77	60.625	257.59	-1197.1	1398.9	304.32	-1275.9	1147	311.36
